# xmcd
#
# Track frame offsets: 
#        150
#        15272
#        25673
#        38699
#        51439
#        66083
#        76190
#        91227
#        106485
#        117723
#        129537
#        141149
#        151734
#        166567
#        181766
#
# Disc length: 2582 seconds
#
# Revision: 0
# Processed by: cddbd v1.5.2PL0 Copyright (c) Steve Scherf et al.
# Submitted via: ExactAudioCopyFreeDBPlugin 1.0
#
DISCID=af0a140f
DTITLE=Charles Trenet - Chanson Celebration Collection La Mer CD 04 Sé
DTITLE=rénade portugaise
DYEAR=1940
DGENRE=Chanson
TTITLE0=Prés de toi, mon amour
TTITLE1=Boom!
TTITLE2=Your hand in my hand
TTITLE3=La romance de Paris
TTITLE4=Bonsoir, jolie Madame
TTITLE5=Un rien me fait chanter
TTITLE6=Papa Pique et Madame Coud
TTITLE7=Verlaine
TTITLE8=Chanson du joli feu de bois
TTITLE9=Sérénade protugaise
TTITLE10=Terre!
TTITLE11=La cigale et la fourmi
TTITLE12=Le temps des cerises
TTITLE13=La mer
TTITLE14=Frédérica
EXTD=
EXTT0=
EXTT1=
EXTT2=
EXTT3=
EXTT4=
EXTT5=
EXTT6=
EXTT7=
EXTT8=
EXTT9=
EXTT10=
EXTT11=
EXTT12=
EXTT13=
EXTT14=
PLAYORDER=
